<?xml version="1.0" encoding="UTF-8"?>
<svg id="Layer_1" xmlns="http://www.w3.org/2000/svg" version="1.1" xmlns:xlink="http://www.w3.org/1999/xlink" viewBox="0 0 1024 1024">
  <!-- Generator: Adobe Illustrator 30.1.0, SVG Export Plug-In . SVG Version: 2.1.1 Build 136)  -->
  <defs>
    <clipPath id="clippath">
      <rect width="1024" height="1024" rx="224" ry="224" fill="none"/>
    </clipPath>
    <linearGradient id="linear-gradient" x1="160" y1="944" x2="864" y2="80" gradientTransform="translate(0 1024) scale(1 -1)" gradientUnits="userSpaceOnUse">
      <stop offset="0" stop-color="#242428"/>
      <stop offset=".56" stop-color="#1a1a1e"/>
      <stop offset="1" stop-color="#101014"/>
    </linearGradient>
    <pattern id="grid" x="0" y="0" width="64" height="64" patternTransform="translate(0 -15360) scale(1 -1)" patternUnits="userSpaceOnUse" viewBox="0 0 64 64">
      <g>
        <rect width="64" height="64" fill="none"/>
        <polyline points="64 64 0 64 0 0" fill="none" opacity=".05" stroke="#fff" stroke-width="2"/>
      </g>
    </pattern>
    <linearGradient id="linear-gradient1" x1="579.14" y1="755.27" x2="807.14" y2="419.27" gradientTransform="translate(0 1024) scale(1 -1)" gradientUnits="userSpaceOnUse">
      <stop offset="0" stop-color="#143a66"/>
      <stop offset="1" stop-color="#0b2646"/>
    </linearGradient>
    <linearGradient id="linear-gradient2" x1=".2" y1="1024.32" x2=".2" y2="1023.1" gradientTransform="translate(188 319770) scale(284 -312)" gradientUnits="userSpaceOnUse">
      <stop offset="0" stop-color="#2f2f35"/>
      <stop offset="1" stop-color="#27272d"/>
    </linearGradient>
    <linearGradient id="linear-gradient3" x1="2.08" x2="2.08" xlink:href="#linear-gradient2"/>
  </defs>
  <g clip-path="url(#clippath)">
    <rect width="1024" height="1024" fill="url(#linear-gradient)"/>
    <rect width="1024" height="1024" fill="url(#grid)" isolation="isolate" opacity=".9"/>
    <rect x="118.5" y="112.5" width="787" height="799" rx="91.5" ry="91.5" display="none" fill="none" stroke="#fff" stroke-opacity=".14"/>
    <rect x="552" y="282" width="284" height="312" rx="34" ry="34" display="none" fill="url(#linear-gradient1)" stroke="#007aff" stroke-width="5"/>
    <rect x="571" y="301" width="246" height="274" rx="22" ry="22" display="none" fill="#007aff" isolation="isolate" opacity=".08"/>
    <g>
      <rect x="72.2" y="182.59" width="345.25" height="379.29" rx="41.33" ry="41.33" fill="url(#linear-gradient2)" stroke="#fff" stroke-opacity=".13"/>
      <rect x="606.55" y="182.59" width="345.25" height="379.29" rx="41.33" ry="41.33" fill="url(#linear-gradient3)" stroke="#fff" stroke-opacity=".13"/>
      <g isolation="isolate">
        <path d="M351.15,374.07c0,21.69-2.36,41.08-7.07,58.18-4.72,17.11-11.62,31.55-20.71,43.33-9.09,11.79-20.17,20.78-33.23,26.97-13.07,6.19-28.02,9.29-44.85,9.29-14.55,0-27.95-2.56-40.2-7.68-12.26-5.12-22.83-13.16-31.72-24.14-8.89-10.98-15.83-25.02-20.81-42.12-4.98-17.1-7.48-37.58-7.48-61.42,0-21.68,2.39-41.08,7.17-58.18,4.78-17.1,11.68-31.55,20.71-43.33,9.02-11.78,20.13-20.77,33.33-26.97,13.2-6.19,28.15-9.29,44.85-9.29,14.55,0,27.95,2.56,40.2,7.68,12.25,5.12,22.79,13.13,31.62,24.04,8.82,10.91,15.72,24.92,20.71,42.02,4.98,17.11,7.48,37.65,7.48,61.62ZM194.78,374.88v7.58c0,2.36.13,4.75.4,7.17l98.99-71.52c-4.72-13.33-10.94-23.2-18.69-29.6-7.75-6.4-16.87-9.6-27.38-9.6-7.54,0-14.55,1.92-21.01,5.76-6.46,3.84-12.09,9.73-16.87,17.68-4.78,7.95-8.55,17.91-11.31,29.9-2.76,11.99-4.14,26.2-4.14,42.63ZM301.45,375.69c0-2.29-.07-4.61-.2-6.97-.14-2.35-.2-4.61-.2-6.77l-98.39,71.11c4.31,13.07,10.37,22.76,18.18,29.09,7.81,6.33,16.9,9.5,27.27,9.5,7.54,0,14.58-1.95,21.11-5.86,6.53-3.9,12.19-9.8,16.97-17.68,4.78-7.88,8.52-17.84,11.21-29.9,2.69-12.05,4.04-26.23,4.04-42.53Z" fill="#f2f2f7"/>
      </g>
      <g isolation="isolate">
        <path d="M697.72,507.21v-43.84h67.28v-169.7l-58.59,32.32-16.16-40.2,83.84-44.24h41.42v221.83h57.98v43.84h-175.76Z" fill="#fff"/>
      </g>
      <path d="M481,333h58" fill="none" stroke="#007aff" stroke-linecap="round" stroke-linejoin="round" stroke-width="28"/>
      <path d="M519,295l38,38-38,38" fill="none" stroke="#007aff" stroke-linecap="round" stroke-linejoin="round" stroke-width="28"/>
      <path d="M543,437h-58" fill="none" stroke="#007aff" stroke-linecap="round" stroke-linejoin="round" stroke-width="28"/>
      <path d="M505,399l-38,38,38,38" fill="none" stroke="#007aff" stroke-linecap="round" stroke-linejoin="round" stroke-width="28"/>
    </g>
    <rect x="73.27" y="711.21" width="874.13" height="126.94" rx="25.96" ry="25.96" fill="#2a2a30" stroke="#fff" stroke-opacity=".1"/>
    <g isolation="isolate">
      <path d="M206.21,755.89h-19.4v55.54h-15.37v-55.54h-19.3v-12.47h54.07v12.47Z" fill="#f2f2f7"/>
      <path d="M282.91,811.43h-17.6l-10.58-17.5c-.79-1.33-1.55-2.51-2.28-3.56-.73-1.04-1.46-1.94-2.21-2.68-.74-.74-1.52-1.31-2.32-1.71-.81-.4-1.68-.59-2.63-.59h-4.13v26.04h-15.32v-68.01h24.28c16.5,0,24.76,6.17,24.76,18.5,0,2.37-.36,4.56-1.09,6.57-.73,2.01-1.75,3.82-3.08,5.43-1.33,1.61-2.93,3-4.81,4.17-1.88,1.17-3.98,2.09-6.28,2.75v.19c1.01.32,1.99.83,2.94,1.54.95.71,1.87,1.54,2.75,2.49.88.95,1.73,1.97,2.54,3.06.81,1.09,1.54,2.16,2.21,3.2l12.85,20.11ZM241.17,754.89v18.92h6.64c3.29,0,5.93-.95,7.92-2.85,2.02-1.93,3.04-4.32,3.04-7.16,0-5.94-3.56-8.92-10.67-8.92h-6.92Z" fill="#f2f2f7"/>
      <path d="M359.56,811.43h-16.7l-4.84-15.13h-24.19l-4.79,15.13h-16.6l24.76-68.01h18.17l24.19,68.01ZM334.52,784.54l-7.3-22.86c-.54-1.71-.92-3.75-1.14-6.12h-.38c-.16,1.99-.55,3.97-1.19,5.93l-7.4,23.05h17.41Z" fill="#f2f2f7"/>
      <path d="M439.73,811.43h-15.46l-28.03-42.73c-1.64-2.5-2.78-4.38-3.42-5.64h-.19c.25,2.4.38,6.07.38,11v37.37h-14.47v-68.01h16.5l26.99,41.41c1.23,1.87,2.37,3.72,3.42,5.55h.19c-.25-1.58-.38-4.7-.38-9.34v-37.61h14.47v68.01Z" fill="#f2f2f7"/>
      <path d="M462.64,808.82v-15.18c2.75,2.31,5.74,4.04,8.96,5.19,3.22,1.16,6.48,1.73,9.77,1.73,1.93,0,3.61-.17,5.05-.52,1.44-.35,2.64-.83,3.6-1.45.96-.62,1.68-1.34,2.16-2.18.47-.84.71-1.75.71-2.73,0-1.33-.38-2.51-1.14-3.56-.76-1.04-1.79-2.01-3.11-2.89-1.31-.88-2.87-1.74-4.67-2.56-1.8-.82-3.75-1.66-5.83-2.51-5.31-2.21-9.27-4.92-11.88-8.11-2.61-3.19-3.91-7.05-3.91-11.57,0-3.54.71-6.58,2.13-9.13s3.36-4.64,5.81-6.29c2.45-1.64,5.29-2.85,8.51-3.63,3.22-.77,6.64-1.16,10.24-1.16s6.68.21,9.42.64c2.73.43,5.26,1.08,7.56,1.97v14.18c-1.14-.79-2.38-1.49-3.72-2.09-1.34-.6-2.73-1.1-4.15-1.49-1.42-.39-2.84-.69-4.25-.88-1.41-.19-2.74-.29-4.01-.29-1.74,0-3.32.17-4.74.5s-2.62.8-3.6,1.4c-.98.6-1.74,1.32-2.28,2.16s-.81,1.78-.81,2.82c0,1.14.3,2.16.9,3.06.6.9,1.45,1.75,2.56,2.56,1.11.81,2.45,1.6,4.03,2.37,1.58.78,3.37,1.57,5.36,2.4,2.72,1.14,5.16,2.35,7.33,3.63,2.17,1.28,4.02,2.73,5.57,4.34,1.55,1.61,2.73,3.46,3.56,5.53.82,2.07,1.23,4.48,1.23,7.23,0,3.79-.72,6.98-2.16,9.56s-3.39,4.66-5.86,6.26c-2.47,1.6-5.34,2.74-8.61,3.44s-6.73,1.04-10.36,1.04-7.28-.32-10.65-.95-6.28-1.58-8.75-2.85Z" fill="#f2f2f7"/>
      <path d="M571.22,811.43h-40.5v-68.01h15.32v55.59h25.18v12.43Z" fill="#f2f2f7"/>
      <path d="M652.8,811.43h-16.69l-4.84-15.13h-24.19l-4.79,15.13h-16.6l24.76-68.01h18.17l24.19,68.01ZM627.76,784.54l-7.3-22.86c-.54-1.71-.92-3.75-1.14-6.12h-.38c-.16,1.99-.55,3.97-1.19,5.93l-7.4,23.05h17.41Z" fill="#f2f2f7"/>
      <path d="M712.76,755.89h-19.4v55.54h-15.37v-55.54h-19.3v-12.47h54.07v12.47Z" fill="#f2f2f7"/>
      <path d="M757.54,812.61c-9.74,0-17.68-3.17-23.81-9.51-6.13-6.34-9.2-14.6-9.2-24.78,0-10.75,3.11-19.45,9.34-26.09,6.23-6.64,14.48-9.96,24.76-9.96,9.71,0,17.56,3.18,23.55,9.53s8.99,14.74,8.99,25.14-3.11,19.3-9.32,25.85c-6.21,6.54-14.32,9.82-24.31,9.82ZM758.21,755.46c-5.38,0-9.64,2.02-12.81,6.05-3.16,4.03-4.74,9.37-4.74,16.01s1.58,12.06,4.74,15.98c3.16,3.92,7.3,5.88,12.43,5.88s9.47-1.9,12.57-5.71,4.65-9.1,4.65-15.87-1.5-12.54-4.51-16.46c-3-3.92-7.11-5.88-12.33-5.88Z" fill="#f2f2f7"/>
      <path d="M870,811.43h-17.6l-10.58-17.5c-.79-1.33-1.55-2.51-2.28-3.56-.73-1.04-1.46-1.94-2.21-2.68-.74-.74-1.52-1.31-2.32-1.71s-1.68-.59-2.63-.59h-4.13v26.04h-15.32v-68.01h24.28c16.51,0,24.76,6.17,24.76,18.5,0,2.37-.36,4.56-1.09,6.57-.73,2.01-1.75,3.82-3.08,5.43-1.33,1.61-2.93,3-4.81,4.17-1.88,1.17-3.98,2.09-6.28,2.75v.19c1.01.32,1.99.83,2.94,1.54.95.71,1.87,1.54,2.75,2.49.88.95,1.73,1.97,2.54,3.06.81,1.09,1.54,2.16,2.21,3.2l12.85,20.11ZM828.27,754.89v18.92h6.64c3.29,0,5.93-.95,7.92-2.85,2.02-1.93,3.04-4.32,3.04-7.16,0-5.94-3.56-8.92-10.67-8.92h-6.92Z" fill="#f2f2f7"/>
    </g>
  </g>
</svg>